<svg data-v-423bf9ae="" xmlns="http://www.w3.org/2000/svg" viewBox="0 0 596 90" class="iconLeftSlogan"><!----><!----><!----><g data-v-423bf9ae="" id="b32de8d1-0a06-4d28-9fd3-d0d20f320b1b" fill="white" transform="matrix(5.88235305117351,0,0,5.88235305117351,85.91831552999503,-18.88235304182377)"><path d="M8.34 10.82L6.29 5.05C5.99 4.23 6.27 3.65 6.54 3.42L6.54 3.39L2.83 3.39L2.83 3.42C3.09 3.64 3.36 4.23 3.08 5.05L1.08 10.82C0.70 11.90 0.10 12.75-0.28 13.09L-0.28 13.12L2.66 13.12L2.66 13.09C2.46 12.91 2.32 12.33 2.69 11.37L2.81 11.03L6.43 11.03L6.55 11.37C6.90 12.33 6.79 12.91 6.55 13.09L6.55 13.12L9.72 13.12L9.72 13.09C9.32 12.77 8.72 11.90 8.34 10.82ZM4.58 5.25L4.63 5.25C4.77 6.33 5.12 7.27 5.45 8.18L5.96 9.66L3.28 9.66L3.79 8.18C4.12 7.27 4.45 6.33 4.58 5.25ZM10.29 13.12L13.52 13.12L13.52 13.09C13.16 12.85 12.81 12.18 12.81 11.02L12.81 8.64C12.81 7.63 12.78 6.72 12.56 5.39L12.61 5.39C13.03 6.68 13.40 7.50 14.07 8.58L16.04 11.79C16.32 12.24 16.59 12.74 16.74 13.12L19.70 13.12L19.70 13.09C19.33 12.85 18.94 12.17 18.94 11.02L18.94 5.49C18.94 4.34 19.33 3.65 19.70 3.42L19.70 3.39L16.46 3.39L16.46 3.42C16.83 3.65 17.18 4.33 17.18 5.49L17.18 8.01C17.18 8.79 17.21 9.77 17.40 10.89L17.35 10.89C16.93 9.81 16.48 8.82 16.06 8.12L14.04 4.73C13.58 3.96 13.50 3.67 13.47 3.39L10.29 3.39L10.29 3.42C10.81 3.77 11.05 4.66 11.05 5.42L11.05 11.02C11.05 12.17 10.64 12.85 10.29 13.09ZM21.35 13.12L25.19 13.12C28.64 13.12 30.28 11.31 30.28 8.25C30.28 5.19 28.35 3.39 25.41 3.39L21.35 3.39L21.35 3.42C21.71 3.65 22.11 4.45 22.11 5.49L22.11 11.02C22.11 12.17 21.70 12.85 21.35 13.09ZM24.02 11.73L24.02 4.77L25.26 4.77C27.26 4.77 28.21 5.88 28.21 8.25C28.21 10.50 27.20 11.73 25.33 11.73ZM37.35 3.39L37.35 3.42C37.49 3.79 37.31 4.38 37.04 4.84L35.98 6.71C35.84 6.96 35.67 7.21 35.53 7.62L35.48 7.62C35.34 7.22 35.20 6.96 35.04 6.71L33.96 4.84C33.70 4.38 33.52 3.79 33.64 3.42L33.64 3.39L30.66 3.39L30.66 3.42C31.01 3.68 31.44 4.27 31.79 4.84L34.48 9.28L34.48 10.91C34.48 12.10 34.03 12.85 33.63 13.09L33.63 13.12L37.25 13.12L37.25 13.09C36.79 12.85 36.40 12.11 36.40 10.91L36.40 9.21L39.05 4.84C39.41 4.26 39.82 3.68 40.17 3.42L40.17 3.39ZM50.74 3.28C50.27 3.36 49.77 3.39 48.93 3.39L44.24 3.39L44.24 3.42C44.63 3.64 44.98 4.12 44.98 5.49L44.98 11.02C44.98 12.17 44.58 12.85 44.23 13.09L44.23 13.12L47.66 13.12L47.66 13.09C47.29 12.85 46.90 12.18 46.90 11.02L46.90 8.79L48.23 8.79C48.93 8.79 49.57 9.20 49.76 9.80L49.78 9.80L50.23 7.28C49.81 7.36 49.14 7.39 48.13 7.39L46.90 7.39L46.90 4.79L48.47 4.79C49.56 4.79 50.46 5.08 50.96 5.91L50.99 5.89ZM59.21 11.23L57.90 9.11C59.08 8.74 59.81 7.83 59.81 6.34C59.81 4.52 58.51 3.39 56.27 3.39L52.29 3.39L52.29 3.42C52.65 3.65 53.05 4.33 53.05 5.43L53.05 11.02C53.05 12.17 52.65 12.85 52.29 13.09L52.29 13.12L55.66 13.12L55.66 13.09C55.36 12.85 54.96 12.18 54.96 11.07L54.96 4.77L55.94 4.76C57.15 4.75 57.82 5.39 57.82 6.41C57.82 7.66 57.15 8.15 55.94 8.15L55.27 8.15L57.44 11.86C57.75 12.38 57.97 12.87 58.16 13.41L61.03 12.89L61.03 12.87C60.35 12.64 59.74 12.08 59.21 11.23ZM68.56 10.43C67.96 11.28 66.98 11.75 65.74 11.75L64.22 11.75L64.22 8.60L65.51 8.60C66.29 8.60 66.79 8.85 67.03 9.48L67.06 9.48L67.47 7.13C66.84 7.21 66.44 7.22 65.28 7.22L64.22 7.22L64.22 4.76L66.07 4.76C67.16 4.76 67.93 5.11 68.26 5.80L68.29 5.78L68.05 3.28C67.75 3.35 67.13 3.39 66.57 3.39L61.54 3.39L61.54 3.42C61.91 3.65 62.30 4.33 62.30 5.49L62.30 11.02C62.30 12.17 61.89 12.85 61.54 13.09L61.54 13.12L66.49 13.12C67.31 13.12 67.68 13.15 68.19 13.23L68.59 10.44ZM72.86 13.33C75.12 13.30 76.27 12.03 76.27 10.47C76.27 8.37 74.79 7.76 73.54 7.24C72.63 6.86 71.85 6.54 71.85 5.73C71.85 5.01 72.39 4.65 73.46 4.65C74.27 4.65 75.07 4.87 75.67 5.80L75.70 5.80L75.52 3.50C74.70 3.29 74.05 3.21 73.32 3.21C71.15 3.21 69.96 4.48 69.96 5.87C69.96 7.81 71.32 8.39 72.53 8.89C73.49 9.28 74.34 9.65 74.34 10.61C74.34 11.37 73.85 11.84 72.72 11.87C71.57 11.90 70.66 11.49 69.82 10.40L69.79 10.42L70.03 12.77C70.66 13.15 71.72 13.34 72.86 13.33ZM86.69 3.42L86.69 3.39L83.30 3.39L83.30 3.42C83.64 3.65 84.01 4.33 84.01 5.49L84.01 7.22L80.29 7.22L80.29 5.49C80.29 4.34 80.68 3.65 81.00 3.42L81.00 3.39L77.62 3.39L77.62 3.42C77.98 3.65 78.37 4.33 78.37 5.49L78.37 11.02C78.37 12.17 77.97 12.85 77.62 13.09L77.62 13.12L81.00 13.12L81.00 13.09C80.67 12.85 80.29 12.18 80.29 11.02L80.29 8.62L84.01 8.62L84.01 11.07C84.01 12.17 83.62 12.85 83.30 13.09L83.30 13.12L86.69 13.12L86.69 13.09C86.32 12.85 85.93 12.18 85.93 11.07L85.93 5.49C85.93 4.34 86.34 3.65 86.69 3.42Z"></path></g><!----><g data-v-423bf9ae="" id="daab520f-a3e0-46fa-ace0-38a8b5aac872" transform="matrix(2.8125,0,0,2.8125,-12.426001459360123,0)" stroke="none" fill="white"><path d="M27.377 11.377L16 0 4.623 11.377 16 22.753l11.377-11.376zM16 6.026l5.35 5.35L16 16.727l-5.35-5.35L16 6.026zM27.426 14.969l-5.664 5.664V32h5.664zM10.238 20.633l-5.664-5.664V32h5.664z"></path></g><!----><g data-v-423bf9ae="" id="094b6831-381d-4280-a255-9c58dac8569a" fill="white" transform="matrix(0.8166139564486065,0,0,0.8166139564486065,83.07899509072521,57.027526174656714)"><path d="M2.16 12.38L7.99 12.38L7.99 13.02L1.46 13.02L1.46 3.78L7.77 3.78L7.77 4.42L2.16 4.42L2.16 7.99L6.59 7.99L6.59 8.65L2.16 8.65L2.16 12.38ZM19.88 3.64L19.88 3.64Q22.48 3.64 23.37 5.68L23.37 5.68L22.76 6.17L22.76 6.17Q22.41 5.18 21.72 4.73L21.72 4.73L21.72 4.73Q21.03 4.28 19.89 4.28L19.89 4.28L19.89 4.28Q19.08 4.28 18.48 4.54L18.48 4.54L18.48 4.54Q17.88 4.79 17.56 5.22L17.56 5.22L17.56 5.22Q17.25 5.66 17.25 6.20L17.25 6.20L17.25 6.20Q17.25 6.73 17.51 7.08L17.51 7.08L17.51 7.08Q17.78 7.43 18.42 7.68L18.42 7.68L18.42 7.68Q19.05 7.92 20.17 8.12L20.17 8.12L20.17 8.12Q21.98 8.43 22.74 9.02L22.74 9.02L22.74 9.02Q23.49 9.60 23.49 10.64L23.49 10.64L23.49 10.64Q23.49 11.38 23.06 11.96L23.06 11.96L23.06 11.96Q22.62 12.53 21.83 12.84L21.83 12.84L21.83 12.84Q21.04 13.16 20.02 13.16L20.02 13.16L20.02 13.16Q18.56 13.16 17.56 12.58L17.56 12.58L17.56 12.58Q16.56 12.00 16.20 10.95L16.20 10.95L16.81 10.47L16.81 10.47Q17.09 11.47 17.94 11.99L17.94 11.99L17.94 11.99Q18.79 12.52 20.03 12.52L20.03 12.52L20.03 12.52Q21.24 12.52 22.00 12.03L22.00 12.03L22.00 12.03Q22.76 11.54 22.76 10.68L22.76 10.68L22.76 10.68Q22.76 9.94 22.14 9.51L22.14 9.51L22.14 9.51Q21.52 9.07 19.98 8.81L19.98 8.81L19.98 8.81Q18.68 8.58 17.92 8.26L17.92 8.26L17.92 8.26Q17.16 7.94 16.84 7.46L16.84 7.46L16.84 7.46Q16.51 6.99 16.51 6.27L16.51 6.27L16.51 6.27Q16.51 5.56 16.92 4.96L16.92 4.96L16.92 4.96Q17.33 4.35 18.09 4.00L18.09 4.00L18.09 4.00Q18.86 3.64 19.88 3.64L19.88 3.64ZM35.55 3.64L35.55 3.64Q38.15 3.64 39.03 5.68L39.03 5.68L38.43 6.17L38.43 6.17Q38.08 5.18 37.39 4.73L37.39 4.73L37.39 4.73Q36.69 4.28 35.56 4.28L35.56 4.28L35.56 4.28Q34.75 4.28 34.15 4.54L34.15 4.54L34.15 4.54Q33.54 4.79 33.23 5.22L33.23 5.22L33.23 5.22Q32.91 5.66 32.91 6.20L32.91 6.20L32.91 6.20Q32.91 6.73 33.18 7.08L33.18 7.08L33.18 7.08Q33.45 7.43 34.08 7.68L34.08 7.68L34.08 7.68Q34.72 7.92 35.84 8.12L35.84 8.12L35.84 8.12Q37.65 8.43 38.40 9.02L38.40 9.02L38.40 9.02Q39.16 9.60 39.16 10.64L39.16 10.64L39.16 10.64Q39.16 11.38 38.72 11.96L38.72 11.96L38.72 11.96Q38.29 12.53 37.50 12.84L37.50 12.84L37.50 12.84Q36.71 13.16 35.69 13.16L35.69 13.16L35.69 13.16Q34.23 13.16 33.23 12.58L33.23 12.58L33.23 12.58Q32.23 12.00 31.86 10.95L31.86 10.95L32.48 10.47L32.48 10.47Q32.76 11.47 33.61 11.99L33.61 11.99L33.61 11.99Q34.45 12.52 35.70 12.52L35.70 12.52L35.70 12.52Q36.90 12.52 37.67 12.03L37.67 12.03L37.67 12.03Q38.43 11.54 38.43 10.68L38.43 10.68L38.43 10.68Q38.43 9.94 37.81 9.51L37.81 9.51L37.81 9.51Q37.18 9.07 35.64 8.81L35.64 8.81L35.64 8.81Q34.34 8.58 33.59 8.26L33.59 8.26L33.59 8.26Q32.83 7.94 32.50 7.46L32.50 7.46L32.50 7.46Q32.17 6.99 32.17 6.27L32.17 6.27L32.17 6.27Q32.17 5.56 32.59 4.96L32.59 4.96L32.59 4.96Q33.00 4.35 33.76 4.00L33.76 4.00L33.76 4.00Q34.52 3.64 35.55 3.64L35.55 3.64ZM49.06 12.38L54.89 12.38L54.89 13.02L48.36 13.02L48.36 3.78L54.67 3.78L54.67 4.42L49.06 4.42L49.06 7.99L53.49 7.99L53.49 8.65L49.06 8.65L49.06 12.38ZM71.02 3.78L71.02 13.02L70.15 13.02L65.25 5.77L64.57 4.54L64.55 4.54L64.60 5.70L64.60 13.02L63.92 13.02L63.92 3.78L64.81 3.78L69.69 11.02L70.39 12.26L70.36 11.10L70.36 3.78L71.02 3.78ZM87.23 3.78L87.23 4.42L83.86 4.42L83.86 13.02L83.16 13.02L83.16 4.42L79.79 4.42L79.79 3.78L87.23 3.78ZM96.70 3.78L96.70 13.02L96.00 13.02L96.00 3.78L96.70 3.78ZM112.90 13.02L111.73 10.12L107.31 10.12L106.16 13.02L105.42 13.02L109.12 3.78L109.94 3.78L113.64 13.02L112.90 13.02ZM107.58 9.48L111.48 9.48L109.87 5.45L109.54 4.47L109.52 4.47L109.19 5.42L107.58 9.48ZM123.06 12.38L128.60 12.38L128.60 13.02L122.36 13.02L122.36 3.78L123.06 3.78L123.06 12.38ZM151.23 3.64L151.23 3.64Q153.83 3.64 154.71 5.68L154.71 5.68L154.11 6.17L154.11 6.17Q153.76 5.18 153.07 4.73L153.07 4.73L153.07 4.73Q152.38 4.28 151.24 4.28L151.24 4.28L151.24 4.28Q150.43 4.28 149.83 4.54L149.83 4.54L149.83 4.54Q149.23 4.79 148.91 5.22L148.91 5.22L148.91 5.22Q148.60 5.66 148.60 6.20L148.60 6.20L148.60 6.20Q148.60 6.73 148.86 7.08L148.86 7.08L148.86 7.08Q149.13 7.43 149.77 7.68L149.77 7.68L149.77 7.68Q150.40 7.92 151.52 8.12L151.52 8.12L151.52 8.12Q153.33 8.43 154.08 9.02L154.08 9.02L154.08 9.02Q154.84 9.60 154.84 10.64L154.84 10.64L154.84 10.64Q154.84 11.38 154.41 11.96L154.41 11.96L154.41 11.96Q153.97 12.53 153.18 12.84L153.18 12.84L153.18 12.84Q152.39 13.16 151.37 13.16L151.37 13.16L151.37 13.16Q149.91 13.16 148.91 12.58L148.91 12.58L148.91 12.58Q147.91 12.00 147.55 10.95L147.55 10.95L148.16 10.47L148.16 10.47Q148.44 11.47 149.29 11.99L149.29 11.99L149.29 11.99Q150.14 12.52 151.38 12.52L151.38 12.52L151.38 12.52Q152.59 12.52 153.35 12.03L153.35 12.03L153.35 12.03Q154.11 11.54 154.11 10.68L154.11 10.68L154.11 10.68Q154.11 9.94 153.49 9.51L153.49 9.51L153.49 9.51Q152.87 9.07 151.33 8.81L151.33 8.81L151.33 8.81Q150.02 8.58 149.27 8.26L149.27 8.26L149.27 8.26Q148.51 7.94 148.18 7.46L148.18 7.46L148.18 7.46Q147.85 6.99 147.85 6.27L147.85 6.27L147.85 6.27Q147.85 5.56 148.27 4.96L148.27 4.96L148.27 4.96Q148.68 4.35 149.44 4.00L149.44 4.00L149.44 4.00Q150.21 3.64 151.23 3.64L151.23 3.64ZM169.92 3.78L169.92 4.42L166.54 4.42L166.54 13.02L165.84 13.02L165.84 4.42L162.47 4.42L162.47 3.78L169.92 3.78ZM184.66 3.78L181.38 9.42L181.38 13.02L180.68 13.02L180.68 9.42L177.41 3.78L178.23 3.78L181.03 8.69L183.83 3.78L184.66 3.78ZM194.00 12.38L199.54 12.38L199.54 13.02L193.30 13.02L193.30 3.78L194.00 3.78L194.00 12.38ZM209.01 12.38L214.84 12.38L214.84 13.02L208.31 13.02L208.31 3.78L214.62 3.78L214.62 4.42L209.01 4.42L209.01 7.99L213.44 7.99L213.44 8.65L209.01 8.65L209.01 12.38ZM223.96 11.87L223.96 11.87Q224.24 11.87 224.41 12.05L224.41 12.05L224.41 12.05Q224.59 12.22 224.59 12.50L224.59 12.50L224.59 12.50Q224.59 12.78 224.41 12.96L224.41 12.96L224.41 12.96Q224.24 13.13 223.96 13.13L223.96 13.13L223.96 13.13Q223.68 13.13 223.50 12.96L223.50 12.96L223.50 12.96Q223.33 12.78 223.33 12.50L223.33 12.50L223.33 12.50Q223.33 12.22 223.50 12.05L223.50 12.05L223.50 12.05Q223.68 11.87 223.96 11.87L223.96 11.87ZM246.04 12.38L251.87 12.38L251.87 13.02L245.34 13.02L245.34 3.78L251.65 3.78L251.65 4.42L246.04 4.42L246.04 7.99L250.47 7.99L250.47 8.65L246.04 8.65L246.04 12.38ZM267.02 13.02L266.20 13.02L263.38 8.83L260.54 13.02L259.71 13.02L263.02 8.27L259.99 3.78L260.83 3.78L263.47 7.70L266.13 3.78L266.91 3.78L263.84 8.26L267.02 13.02ZM282.81 10.68L282.81 10.68Q282.42 11.86 281.45 12.51L281.45 12.51L281.45 12.51Q280.48 13.16 279.12 13.16L279.12 13.16L279.12 13.16Q277.86 13.16 276.91 12.58L276.91 12.58L276.91 12.58Q275.95 12.00 275.44 10.92L275.44 10.92L275.44 10.92Q274.92 9.84 274.92 8.40L274.92 8.40L274.92 8.40Q274.92 6.96 275.44 5.88L275.44 5.88L275.44 5.88Q275.95 4.80 276.91 4.22L276.91 4.22L276.91 4.22Q277.86 3.64 279.10 3.64L279.10 3.64L279.10 3.64Q281.88 3.64 282.69 5.92L282.69 5.92L282.00 6.24L282.00 6.24Q281.68 5.26 280.97 4.77L280.97 4.77L280.97 4.77Q280.27 4.28 279.15 4.28L279.15 4.28L279.15 4.28Q278.11 4.28 277.32 4.78L277.32 4.78L277.32 4.78Q276.53 5.28 276.09 6.21L276.09 6.21L276.09 6.21Q275.66 7.14 275.66 8.40L275.66 8.40L275.66 8.40Q275.66 9.66 276.09 10.59L276.09 10.59L276.09 10.59Q276.51 11.52 277.29 12.02L277.29 12.02L277.29 12.02Q278.07 12.52 279.12 12.52L279.12 12.52L279.12 12.52Q280.24 12.52 281.02 11.97L281.02 11.97L281.02 11.97Q281.81 11.42 282.11 10.42L282.11 10.42L282.81 10.68ZM292.57 12.38L298.41 12.38L298.41 13.02L291.87 13.02L291.87 3.78L298.19 3.78L298.19 4.42L292.57 4.42L292.57 7.99L297.01 7.99L297.01 8.65L292.57 8.65L292.57 12.38ZM310.51 3.78L310.51 3.78Q311.95 3.78 312.80 4.50L312.80 4.50L312.80 4.50Q313.64 5.22 313.64 6.48L313.64 6.48L313.64 6.48Q313.64 7.74 312.80 8.47L312.80 8.47L312.80 8.47Q311.95 9.20 310.51 9.20L310.51 9.20L308.14 9.20L308.14 13.02L307.44 13.02L307.44 3.78L310.51 3.78ZM310.42 8.54L310.42 8.54Q311.63 8.54 312.26 8.01L312.26 8.01L312.26 8.01Q312.90 7.48 312.90 6.48L312.90 6.48L312.90 6.48Q312.90 5.50 312.26 4.96L312.26 4.96L312.26 4.96Q311.63 4.42 310.42 4.42L310.42 4.42L308.14 4.42L308.14 8.54L310.42 8.54ZM328.96 3.78L328.96 4.42L325.58 4.42L325.58 13.02L324.88 13.02L324.88 4.42L321.51 4.42L321.51 3.78L328.96 3.78ZM338.42 3.78L338.42 13.02L337.72 13.02L337.72 3.78L338.42 3.78ZM352.00 3.64L352.00 3.64Q353.30 3.64 354.26 4.22L354.26 4.22L354.26 4.22Q355.22 4.80 355.74 5.87L355.74 5.87L355.74 5.87Q356.26 6.94 356.26 8.40L356.26 8.40L356.26 8.40Q356.26 9.86 355.74 10.93L355.74 10.93L355.74 10.93Q355.22 12.00 354.26 12.58L354.26 12.58L354.26 12.58Q353.30 13.16 352.00 13.16L352.00 13.16L352.00 13.16Q350.70 13.16 349.74 12.58L349.74 12.58L349.74 12.58Q348.78 12.00 348.26 10.93L348.26 10.93L348.26 10.93Q347.75 9.86 347.75 8.40L347.75 8.40L347.75 8.40Q347.75 6.94 348.26 5.87L348.26 5.87L348.26 5.87Q348.78 4.80 349.74 4.22L349.74 4.22L349.74 4.22Q350.70 3.64 352.00 3.64L352.00 3.64ZM352.00 4.28L352.00 4.28Q350.92 4.28 350.13 4.78L350.13 4.78L350.13 4.78Q349.34 5.28 348.92 6.21L348.92 6.21L348.92 6.21Q348.49 7.14 348.49 8.40L348.49 8.40L348.49 8.40Q348.49 9.66 348.92 10.59L348.92 10.59L348.92 10.59Q349.34 11.52 350.13 12.02L350.13 12.02L350.13 12.02Q350.92 12.52 352.00 12.52L352.00 12.52L352.00 12.52Q353.08 12.52 353.88 12.02L353.88 12.02L353.88 12.02Q354.68 11.52 355.10 10.59L355.10 10.59L355.10 10.59Q355.53 9.66 355.53 8.40L355.53 8.40L355.53 8.40Q355.53 7.14 355.10 6.21L355.10 6.21L355.10 6.21Q354.68 5.28 353.88 4.78L353.88 4.78L353.88 4.78Q353.08 4.28 352.00 4.28L352.00 4.28ZM372.68 3.78L372.68 13.02L371.81 13.02L366.91 5.77L366.23 4.54L366.21 4.54L366.25 5.70L366.25 13.02L365.58 13.02L365.58 3.78L366.46 3.78L371.35 11.02L372.05 12.26L372.02 11.10L372.02 3.78L372.68 3.78ZM388.88 13.02L387.72 10.12L383.29 10.12L382.14 13.02L381.40 13.02L385.10 3.78L385.92 3.78L389.62 13.02L388.88 13.02ZM383.56 9.48L387.46 9.48L385.85 5.45L385.52 4.47L385.50 4.47L385.17 5.42L383.56 9.48ZM399.04 12.38L404.59 12.38L404.59 13.02L398.34 13.02L398.34 3.78L399.04 3.78L399.04 12.38ZM431.17 3.78L427.62 13.02L426.79 13.02L423.22 3.78L423.98 3.78L426.71 10.93L427.20 12.36L427.69 10.93L430.43 3.78L431.17 3.78ZM445.49 13.02L444.33 10.12L439.91 10.12L438.76 13.02L438.02 13.02L441.71 3.78L442.54 3.78L446.24 13.02L445.49 13.02ZM440.17 9.48L444.08 9.48L442.47 5.45L442.13 4.47L442.12 4.47L441.78 5.42L440.17 9.48ZM455.66 12.38L461.20 12.38L461.20 13.02L454.96 13.02L454.96 3.78L455.66 3.78L455.66 12.38ZM476.56 3.78L476.56 9.65L476.56 9.65Q476.56 11.35 475.64 12.26L475.64 12.26L475.64 12.26Q474.71 13.16 473.00 13.16L473.00 13.16L473.00 13.16Q471.30 13.16 470.37 12.26L470.37 12.26L470.37 12.26Q469.43 11.35 469.43 9.65L469.43 9.65L469.43 3.78L470.13 3.78L470.13 9.51L470.13 9.51Q470.13 10.99 470.86 11.75L470.86 11.75L470.86 11.75Q471.59 12.52 473.00 12.52L473.00 12.52L473.00 12.52Q474.40 12.52 475.13 11.75L475.13 11.75L475.13 11.75Q475.86 10.99 475.86 9.51L475.86 9.51L475.86 3.78L476.56 3.78ZM487.06 12.38L492.90 12.38L492.90 13.02L486.36 13.02L486.36 3.78L492.67 3.78L492.67 4.42L487.06 4.42L487.06 7.99L491.50 7.99L491.50 8.65L487.06 8.65L487.06 12.38ZM502.01 11.87L502.01 11.87Q502.29 11.87 502.47 12.05L502.47 12.05L502.47 12.05Q502.64 12.22 502.64 12.50L502.64 12.50L502.64 12.50Q502.64 12.78 502.47 12.96L502.47 12.96L502.47 12.96Q502.29 13.13 502.01 13.13L502.01 13.13L502.01 13.13Q501.73 13.13 501.56 12.96L501.56 12.96L501.56 12.96Q501.38 12.78 501.38 12.50L501.38 12.50L501.38 12.50Q501.38 12.22 501.56 12.05L501.56 12.05L501.56 12.05Q501.73 11.87 502.01 11.87L502.01 11.87Z"></path></g></svg>