<svg data-v-423bf9ae="" xmlns="http://www.w3.org/2000/svg" viewBox="0 0 511.5882520411669 60" class="font"><!----><!----><!----><g data-v-423bf9ae="" id="828b4b81-bdd1-467b-9921-a0526960bfe6" fill="black" transform="matrix(5.88235305117351,0,0,5.88235305117351,1.6470600368309647,-18.88235304182377)"><path d="M8.34 10.82L6.29 5.05C5.99 4.23 6.27 3.65 6.54 3.42L6.54 3.39L2.83 3.39L2.83 3.42C3.09 3.64 3.36 4.23 3.08 5.05L1.08 10.82C0.70 11.90 0.10 12.75-0.28 13.09L-0.28 13.12L2.66 13.12L2.66 13.09C2.46 12.91 2.32 12.33 2.69 11.37L2.81 11.03L6.43 11.03L6.55 11.37C6.90 12.33 6.79 12.91 6.55 13.09L6.55 13.12L9.72 13.12L9.72 13.09C9.32 12.77 8.72 11.90 8.34 10.82ZM4.58 5.25L4.63 5.25C4.77 6.33 5.12 7.27 5.45 8.18L5.96 9.66L3.28 9.66L3.79 8.18C4.12 7.27 4.45 6.33 4.58 5.25ZM10.29 13.12L13.52 13.12L13.52 13.09C13.16 12.85 12.81 12.18 12.81 11.02L12.81 8.64C12.81 7.63 12.78 6.72 12.56 5.39L12.61 5.39C13.03 6.68 13.40 7.50 14.07 8.58L16.04 11.79C16.32 12.24 16.59 12.74 16.74 13.12L19.70 13.12L19.70 13.09C19.33 12.85 18.94 12.17 18.94 11.02L18.94 5.49C18.94 4.34 19.33 3.65 19.70 3.42L19.70 3.39L16.46 3.39L16.46 3.42C16.83 3.65 17.18 4.33 17.18 5.49L17.18 8.01C17.18 8.79 17.21 9.77 17.40 10.89L17.35 10.89C16.93 9.81 16.48 8.82 16.06 8.12L14.04 4.73C13.58 3.96 13.50 3.67 13.47 3.39L10.29 3.39L10.29 3.42C10.81 3.77 11.05 4.66 11.05 5.42L11.05 11.02C11.05 12.17 10.64 12.85 10.29 13.09ZM21.35 13.12L25.19 13.12C28.64 13.12 30.28 11.31 30.28 8.25C30.28 5.19 28.35 3.39 25.41 3.39L21.35 3.39L21.35 3.42C21.71 3.65 22.11 4.45 22.11 5.49L22.11 11.02C22.11 12.17 21.70 12.85 21.35 13.09ZM24.02 11.73L24.02 4.77L25.26 4.77C27.26 4.77 28.21 5.88 28.21 8.25C28.21 10.50 27.20 11.73 25.33 11.73ZM37.35 3.39L37.35 3.42C37.49 3.79 37.31 4.38 37.04 4.84L35.98 6.71C35.84 6.96 35.67 7.21 35.53 7.62L35.48 7.62C35.34 7.22 35.20 6.96 35.04 6.71L33.96 4.84C33.70 4.38 33.52 3.79 33.64 3.42L33.64 3.39L30.66 3.39L30.66 3.42C31.01 3.68 31.44 4.27 31.79 4.84L34.48 9.28L34.48 10.91C34.48 12.10 34.03 12.85 33.63 13.09L33.63 13.12L37.25 13.12L37.25 13.09C36.79 12.85 36.40 12.11 36.40 10.91L36.40 9.21L39.05 4.84C39.41 4.26 39.82 3.68 40.17 3.42L40.17 3.39ZM50.74 3.28C50.27 3.36 49.77 3.39 48.93 3.39L44.24 3.39L44.24 3.42C44.63 3.64 44.98 4.12 44.98 5.49L44.98 11.02C44.98 12.17 44.58 12.85 44.23 13.09L44.23 13.12L47.66 13.12L47.66 13.09C47.29 12.85 46.90 12.18 46.90 11.02L46.90 8.79L48.23 8.79C48.93 8.79 49.57 9.20 49.76 9.80L49.78 9.80L50.23 7.28C49.81 7.36 49.14 7.39 48.13 7.39L46.90 7.39L46.90 4.79L48.47 4.79C49.56 4.79 50.46 5.08 50.96 5.91L50.99 5.89ZM59.21 11.23L57.90 9.11C59.08 8.74 59.81 7.83 59.81 6.34C59.81 4.52 58.51 3.39 56.27 3.39L52.29 3.39L52.29 3.42C52.65 3.65 53.05 4.33 53.05 5.43L53.05 11.02C53.05 12.17 52.65 12.85 52.29 13.09L52.29 13.12L55.66 13.12L55.66 13.09C55.36 12.85 54.96 12.18 54.96 11.07L54.96 4.77L55.94 4.76C57.15 4.75 57.82 5.39 57.82 6.41C57.82 7.66 57.15 8.15 55.94 8.15L55.27 8.15L57.44 11.86C57.75 12.38 57.97 12.87 58.16 13.41L61.03 12.89L61.03 12.87C60.35 12.64 59.74 12.08 59.21 11.23ZM68.56 10.43C67.96 11.28 66.98 11.75 65.74 11.75L64.22 11.75L64.22 8.60L65.51 8.60C66.29 8.60 66.79 8.85 67.03 9.48L67.06 9.48L67.47 7.13C66.84 7.21 66.44 7.22 65.28 7.22L64.22 7.22L64.22 4.76L66.07 4.76C67.16 4.76 67.93 5.11 68.26 5.80L68.29 5.78L68.05 3.28C67.75 3.35 67.13 3.39 66.57 3.39L61.54 3.39L61.54 3.42C61.91 3.65 62.30 4.33 62.30 5.49L62.30 11.02C62.30 12.17 61.89 12.85 61.54 13.09L61.54 13.12L66.49 13.12C67.31 13.12 67.68 13.15 68.19 13.23L68.59 10.44ZM72.86 13.33C75.12 13.30 76.27 12.03 76.27 10.47C76.27 8.37 74.79 7.76 73.54 7.24C72.63 6.86 71.85 6.54 71.85 5.73C71.85 5.01 72.39 4.65 73.46 4.65C74.27 4.65 75.07 4.87 75.67 5.80L75.70 5.80L75.52 3.50C74.70 3.29 74.05 3.21 73.32 3.21C71.15 3.21 69.96 4.48 69.96 5.87C69.96 7.81 71.32 8.39 72.53 8.89C73.49 9.28 74.34 9.65 74.34 10.61C74.34 11.37 73.85 11.84 72.72 11.87C71.57 11.90 70.66 11.49 69.82 10.40L69.79 10.42L70.03 12.77C70.66 13.15 71.72 13.34 72.86 13.33ZM86.69 3.42L86.69 3.39L83.30 3.39L83.30 3.42C83.64 3.65 84.01 4.33 84.01 5.49L84.01 7.22L80.29 7.22L80.29 5.49C80.29 4.34 80.68 3.65 81.00 3.42L81.00 3.39L77.62 3.39L77.62 3.42C77.98 3.65 78.37 4.33 78.37 5.49L78.37 11.02C78.37 12.17 77.97 12.85 77.62 13.09L77.62 13.12L81.00 13.12L81.00 13.09C80.67 12.85 80.29 12.18 80.29 11.02L80.29 8.62L84.01 8.62L84.01 11.07C84.01 12.17 83.62 12.85 83.30 13.09L83.30 13.12L86.69 13.12L86.69 13.09C86.32 12.85 85.93 12.18 85.93 11.07L85.93 5.49C85.93 4.34 86.34 3.65 86.69 3.42Z"></path></g><!----><!----></svg>